<?xml version="1.0" encoding="UTF-8"?>
<svg xmlns="http://www.w3.org/2000/svg" xmlns:xlink="http://www.w3.org/1999/xlink" width="150pt" height="150pt" viewBox="0 0 150 150" version="1.1">
<g id="surface8346582">
<path style=" stroke:none;fill-rule:nonzero;fill:rgb(40%,40%,40%);fill-opacity:1;" d="M 18.132812 47.96875 L 18.132812 60.660156 C 16.910156 60.347656 15.441406 60.238281 14.109375 60.238281 C 5.53125 60.238281 0 65.617188 0 73.902344 C 0 82.507812 5.214844 86.980469 15.242188 86.992188 C 18.589844 86.992188 21.691406 86.6875 25.894531 85.890625 L 25.894531 47.96875 Z M 30.738281 48.011719 L 30.738281 56.351562 L 38.945312 56.351562 L 38.945312 48.011719 Z M 30.738281 60 L 30.738281 76.84375 C 30.738281 83.917969 30.371094 86.613281 29.195312 88.933594 C 28.078125 91.203125 26.324219 92.6875 22.699219 94.371094 L 30.316406 97.960938 C 33.941406 96.160156 35.695312 94.53125 37.027344 91.945312 C 38.449219 89.257812 38.9375 86.136719 38.9375 79.652344 L 38.9375 60 Z M 136.699219 60 C 128.273438 60 123.015625 65.285156 123 73.765625 C 123 81.929688 128.09375 87 136.367188 87 C 144.742188 87 150 81.722656 150 73.296875 C 150 65.074219 144.957031 60 136.699219 60 Z M 54.25 60.242188 C 50.621094 60.242188 47.300781 60.984375 43.820312 62.660156 L 43.835938 68.925781 C 46.90625 67.292969 50.175781 66.453125 53.085938 66.453125 C 55.070312 66.453125 55.792969 66.984375 55.792969 68.457031 L 55.792969 70.238281 C 46.132812 71.070312 42.199219 73.699219 42.199219 79.382812 C 42.199219 84.636719 45.160156 87 51.761719 87 C 55.027344 87 59.476562 86.625 63 86.101562 L 63 69.65625 C 63 66.289062 62.785156 64.714844 62.125 63.503906 C 60.949219 61.34375 58.296875 60.238281 54.25 60.238281 Z M 80.753906 60.242188 C 76.710938 60.242188 72.71875 60.8125 67.867188 62.082031 L 67.867188 86.671875 L 76.066406 86.671875 L 76.066406 67.359375 C 77.714844 66.878906 78.722656 66.78125 79.84375 66.78125 C 82.769531 66.78125 84.140625 67.941406 84.140625 71.058594 L 84.140625 86.671875 L 92.050781 86.671875 L 92.050781 70.734375 C 92.050781 66.675781 91.507812 64.773438 89.804688 63.035156 C 88 61.191406 84.957031 60.242188 80.753906 60.242188 Z M 113.355469 60.289062 C 101.375 60.289062 94.605469 65.503906 94.605469 74.742188 C 94.605469 82.183594 99.175781 86.882812 106.371094 86.882812 C 108.496094 86.882812 110.101562 86.5625 111.699219 85.773438 L 111.699219 85.925781 C 111.699219 91.097656 109.402344 93.261719 104.027344 93.261719 C 100.980469 93.261719 98.109375 92.582031 95.238281 91.105469 L 95.234375 91.105469 L 95.234375 98.613281 C 98.105469 99.722656 100.875 100.195312 104.074219 100.195312 C 110.363281 100.195312 114.789062 98.238281 117.347656 94.28125 C 119.097656 91.585938 119.691406 88.316406 119.691406 81.34375 L 119.691406 79.128906 C 119.636719 78.019531 119.636719 76.914062 119.585938 75.800781 L 119.53125 71.367188 L 119.425781 67.933594 L 119.425781 67.082031 C 121.074219 67.238281 119.070312 66.886719 121.253906 67.304688 L 124.066406 61.445312 C 120.128906 60.652344 116.875 60.285156 113.355469 60.285156 Z M 136.582031 66.476562 C 139.75 66.476562 141.566406 69.085938 141.566406 73.488281 C 141.566406 77.941406 139.699219 80.507812 136.527344 80.507812 C 133.316406 80.507812 131.425781 77.941406 131.425781 73.488281 C 131.425781 69.035156 133.304688 66.476562 136.582031 66.476562 Z M 14.914062 66.78125 C 15.925781 66.78125 17.167969 66.886719 18.128906 67.203125 L 18.128906 80.246094 C 16.957031 80.398438 15.769531 80.457031 14.859375 80.457031 C 10.65625 80.457031 8.363281 78.066406 8.363281 73.746094 C 8.363281 69.308594 10.761719 66.78125 14.914062 66.78125 Z M 110.683594 66.832031 L 111.539062 66.832031 L 111.539062 67.457031 L 111.59375 70.148438 L 111.644531 73.898438 C 111.644531 75.003906 111.699219 76.066406 111.699219 77.015625 L 111.699219 79.820312 C 110.640625 80.136719 109.734375 80.34375 108.617188 80.34375 C 104.992188 80.34375 102.960938 78.015625 102.960938 73.957031 C 102.960938 71.109375 103.972656 69.101562 105.9375 67.992188 C 107.214844 67.195312 109.085938 66.78125 110.683594 66.832031 Z M 56.148438 75.53125 L 56.148438 80.953125 C 54.621094 81.214844 53.542969 81.320312 52.367188 81.320312 C 50.214844 81.320312 49.242188 80.582031 49.242188 79.007812 C 49.242188 76.90625 50.9375 76.054688 56.148438 75.535156 Z M 56.148438 75.53125 "/>
</g>
</svg>
