<?xml version="1.0" encoding="UTF-8"?>
<svg xmlns="http://www.w3.org/2000/svg" xmlns:xlink="http://www.w3.org/1999/xlink" width="150pt" height="150pt" viewBox="0 0 150 150" version="1.1">
<g id="surface8347651">
<path style=" stroke:none;fill-rule:nonzero;fill:rgb(40%,40%,40%);fill-opacity:1;" d="M 75 3 C 74.011719 3 73.179688 3.507812 72.632812 4.242188 C 72.585938 4.300781 72.511719 4.324219 72.46875 4.390625 L 30.46875 70.390625 C 30.417969 70.464844 30.410156 70.566406 30.367188 70.648438 C 30.273438 70.835938 30.210938 71.023438 30.152344 71.226562 C 30.105469 71.402344 30.0625 71.578125 30.046875 71.757812 C 30.03125 71.964844 30.050781 72.160156 30.074219 72.367188 C 30.089844 72.484375 30.058594 72.605469 30.085938 72.71875 C 30.109375 72.800781 30.167969 72.867188 30.195312 72.941406 C 30.21875 73.019531 30.210938 73.105469 30.246094 73.183594 C 30.296875 73.300781 30.386719 73.375 30.453125 73.480469 C 30.550781 73.652344 30.652344 73.816406 30.785156 73.960938 C 30.929688 74.125 31.089844 74.257812 31.261719 74.382812 C 31.351562 74.453125 31.414062 74.550781 31.511719 74.605469 L 73.511719 98.605469 C 73.578125 98.644531 73.652344 98.664062 73.722656 98.695312 C 73.804688 98.734375 73.882812 98.761719 73.96875 98.792969 C 74.300781 98.914062 74.648438 99 75 99 C 75.351562 99 75.699219 98.917969 76.03125 98.792969 C 76.117188 98.761719 76.191406 98.726562 76.277344 98.6875 C 76.347656 98.65625 76.421875 98.640625 76.488281 98.601562 L 118.488281 74.601562 C 118.507812 74.589844 118.515625 74.570312 118.535156 74.558594 C 118.839844 74.378906 119.109375 74.140625 119.339844 73.855469 C 119.390625 73.789062 119.425781 73.710938 119.480469 73.632812 C 119.578125 73.488281 119.6875 73.351562 119.761719 73.183594 C 119.792969 73.105469 119.78125 73.023438 119.808594 72.941406 C 119.832031 72.867188 119.890625 72.800781 119.914062 72.71875 C 119.9375 72.605469 119.914062 72.484375 119.929688 72.367188 C 119.957031 72.160156 119.972656 71.960938 119.953125 71.753906 C 119.9375 71.570312 119.894531 71.398438 119.847656 71.21875 C 119.789062 71.015625 119.730469 70.828125 119.632812 70.640625 C 119.589844 70.558594 119.578125 70.464844 119.53125 70.390625 L 77.53125 4.390625 C 77.492188 4.324219 77.414062 4.300781 77.367188 4.242188 C 76.820312 3.507812 75.988281 3 75 3 Z M 75 10.6875 L 75 57 L 110.285156 72.386719 L 75 93 L 75 57 L 37.6875 69.9375 Z M 32.519531 84.039062 C 31.859375 84.148438 31.234375 84.480469 30.761719 85.007812 C 29.820312 86.066406 29.746094 87.640625 30.585938 88.78125 L 72.585938 145.78125 C 72.625 145.832031 72.6875 145.851562 72.726562 145.898438 C 72.925781 146.140625 73.167969 146.328125 73.433594 146.496094 C 73.539062 146.5625 73.617188 146.644531 73.726562 146.695312 C 74.117188 146.878906 74.539062 147 75 147 C 75.460938 147 75.882812 146.878906 76.273438 146.695312 C 76.378906 146.644531 76.460938 146.558594 76.566406 146.496094 C 76.832031 146.328125 77.074219 146.140625 77.273438 145.898438 C 77.3125 145.851562 77.378906 145.832031 77.414062 145.78125 L 119.414062 88.78125 C 120.253906 87.640625 120.183594 86.066406 119.238281 85.007812 C 118.296875 83.945312 116.738281 83.695312 115.511719 84.398438 L 75 107.550781 L 34.488281 84.398438 C 33.875 84.050781 33.179688 83.933594 32.519531 84.042969 Z M 43.835938 96.648438 L 75 114.9375 L 75 138.382812 Z M 43.835938 96.648438 "/>
</g>
</svg>
