<?xml version="1.0" encoding="UTF-8"?>
<svg xmlns="http://www.w3.org/2000/svg" xmlns:xlink="http://www.w3.org/1999/xlink" width="480pt" height="480pt" viewBox="0 0 480 480" version="1.1">
<g id="surface8350584">
<path style=" stroke:none;fill-rule:nonzero;fill:rgb(40%,40%,40%);fill-opacity:1;" d="M 279 240 C 279 261.558594 261.558594 279 240 279 C 218.441406 279 201 261.558594 201 240 C 201 218.441406 218.441406 201 240 201 C 261.558594 201 279 218.441406 279 240 Z M 279 240 "/>
<path style=" stroke:none;fill-rule:nonzero;fill:rgb(40%,40%,40%);fill-opacity:1;" d="M 240 282 C 216.847656 282 198 263.160156 198 240 C 198 216.839844 216.847656 198 240 198 C 263.152344 198 282 216.839844 282 240 C 282 263.160156 263.152344 282 240 282 Z M 240 204 C 220.144531 204 204 220.144531 204 240 C 204 259.855469 220.144531 276 240 276 C 259.855469 276 276 259.855469 276 240 C 276 220.144531 259.855469 204 240 204 Z M 240 204 "/>
<path style=" stroke:none;fill-rule:nonzero;fill:rgb(40%,40%,40%);fill-opacity:1;" d="M 146.84375 453.019531 C 136.578125 453.019531 127.230469 450.664062 119.050781 446.035156 C 105.371094 438.277344 95.914062 424.90625 90.9375 406.3125 C 85.144531 384.671875 85.835938 355.925781 92.929688 323.046875 C 35.734375 303.371094 3 273.1875 3 240 C 3 206.808594 35.730469 176.628906 92.921875 156.960938 C 85.828125 124.074219 85.132812 95.328125 90.925781 73.6875 C 95.902344 55.085938 105.359375 41.71875 119.035156 33.964844 C 127.207031 29.335938 136.558594 26.980469 146.824219 26.980469 C 173.152344 26.980469 206.171875 43.363281 240.011719 73.171875 C 273.851562 43.390625 306.859375 27.023438 333.15625 27.023438 C 343.421875 27.023438 352.769531 29.375 360.949219 34.007812 C 374.609375 41.753906 384.070312 55.097656 389.050781 73.675781 C 394.847656 95.308594 394.152344 124.0625 387.054688 156.953125 C 444.257812 176.621094 477 206.808594 477 240 C 477 273.191406 444.257812 303.378906 387.054688 323.050781 C 394.144531 355.9375 394.84375 384.683594 389.046875 406.320312 C 384.066406 424.902344 374.617188 438.246094 360.964844 445.992188 C 352.78125 450.625 343.429688 452.976562 333.167969 452.976562 C 306.851562 452.976562 273.835938 436.609375 240.007812 406.84375 C 206.164062 436.644531 173.152344 453.019531 146.84375 453.019531 Z M 116.023438 330.035156 C 110.074219 358.339844 109.410156 382.519531 114.125 400.109375 C 117.378906 412.265625 123.011719 420.695312 130.890625 425.160156 C 135.40625 427.722656 140.777344 429.023438 146.84375 429.023438 C 167.207031 429.023438 194.015625 415.332031 222.570312 390.402344 C 208.261719 375.988281 194.292969 359.675781 181.003906 341.855469 C 158.015625 339.359375 136.175781 335.386719 116.023438 330.035156 Z M 257.4375 390.390625 C 285.984375 415.296875 312.796875 428.976562 333.160156 428.980469 C 339.226562 428.980469 344.597656 427.679688 349.128906 425.117188 C 356.980469 420.664062 362.605469 412.253906 365.851562 400.117188 C 370.566406 382.511719 369.90625 358.339844 363.960938 330.042969 C 343.789062 335.394531 321.941406 339.367188 298.960938 341.863281 C 285.679688 359.683594 271.726562 375.988281 257.4375 390.390625 Z M 213.394531 344.359375 C 222.109375 355.015625 231.023438 364.957031 240 373.996094 C 248.953125 364.960938 257.875 355.019531 266.578125 344.359375 C 257.632812 344.785156 248.722656 345 240 345 C 231.269531 345 222.355469 344.785156 213.394531 344.359375 Z M 194.09375 319.074219 C 209.0625 320.351562 224.503906 321 240 321 C 255.511719 321 270.929688 320.351562 285.875 319.078125 C 294.792969 306.574219 303.292969 293.472656 311.160156 280.109375 C 318.769531 267.179688 325.925781 253.6875 332.441406 239.992188 C 325.945312 226.339844 318.792969 212.851562 311.164062 199.890625 C 303.316406 186.558594 294.816406 173.453125 285.875 160.921875 C 270.941406 159.648438 255.523438 159 240 159 C 224.472656 159 209.046875 159.648438 194.117188 160.925781 C 185.179688 173.441406 176.664062 186.546875 168.804688 199.894531 C 161.183594 212.851562 154.03125 226.339844 147.527344 240.011719 C 154.019531 253.65625 161.171875 267.144531 168.796875 280.117188 C 176.621094 293.40625 185.125 306.503906 194.09375 319.074219 Z M 344.945312 268.675781 C 340.710938 276.75 336.316406 284.671875 331.835938 292.277344 C 327.316406 299.96875 322.511719 307.6875 317.519531 315.292969 C 331.765625 313.097656 345.390625 310.285156 358.144531 306.894531 C 354.605469 294.601562 350.171875 281.777344 344.945312 268.675781 Z M 121.824219 306.886719 C 134.585938 310.273438 148.207031 313.09375 162.433594 315.289062 C 157.410156 307.632812 152.605469 299.910156 148.117188 292.277344 C 143.644531 284.675781 139.246094 276.769531 135.019531 268.691406 C 129.816406 281.734375 125.386719 294.546875 121.824219 306.886719 Z M 358.894531 240 C 368.0625 260.347656 375.535156 280.457031 381.144531 299.863281 C 425.554688 284.238281 453 261.445312 453 240 C 453 218.554688 425.554688 195.761719 381.144531 180.136719 C 375.546875 199.542969 368.070312 219.652344 358.894531 240 Z M 98.832031 180.148438 C 54.4375 195.769531 27 218.5625 27 240 C 27 261.445312 54.4375 284.238281 98.84375 299.855469 C 104.449219 280.445312 111.917969 260.335938 121.074219 240.011719 C 111.910156 219.683594 104.441406 199.570312 98.832031 180.148438 Z M 121.816406 173.113281 C 125.382812 185.4375 129.808594 198.253906 135.019531 211.320312 C 139.242188 203.269531 143.632812 195.355469 148.121094 187.726562 C 152.632812 180.054688 157.441406 172.339844 162.449219 164.710938 C 148.207031 166.902344 134.585938 169.722656 121.816406 173.113281 Z M 317.53125 164.707031 C 322.554688 172.367188 327.359375 180.085938 331.847656 187.726562 C 336.324219 195.328125 340.722656 203.242188 344.957031 211.320312 C 350.171875 198.257812 354.601562 185.441406 358.164062 173.105469 C 345.382812 169.714844 331.765625 166.894531 317.53125 164.707031 Z M 146.824219 50.980469 C 140.761719 50.980469 135.394531 52.277344 130.882812 54.847656 C 123.011719 59.308594 117.371094 67.738281 114.113281 79.894531 C 109.402344 97.507812 110.0625 121.679688 116.015625 149.96875 C 136.175781 144.617188 158.027344 140.640625 181.019531 138.144531 C 194.320312 120.316406 208.289062 104.015625 222.582031 89.617188 C 194.023438 64.675781 167.195312 50.980469 146.824219 50.980469 Z M 298.96875 138.136719 C 321.949219 140.632812 343.792969 144.605469 363.964844 149.957031 C 369.917969 121.660156 370.585938 97.480469 365.863281 79.878906 C 362.609375 67.746094 356.980469 59.335938 349.121094 54.882812 C 344.597656 52.320312 339.226562 51.019531 333.15625 51.019531 C 312.796875 51.019531 285.996094 64.703125 257.441406 89.617188 C 271.722656 104.011719 285.679688 120.316406 298.96875 138.136719 Z M 240 135 C 248.722656 135 257.632812 135.214844 266.585938 135.640625 C 257.886719 124.996094 248.96875 115.0625 240.011719 106.015625 C 231.03125 115.074219 222.121094 125.011719 213.421875 135.640625 C 222.367188 135.214844 231.277344 135 240 135 Z M 240 135 "/>
<path style=" stroke:none;fill-rule:nonzero;fill:rgb(40%,40%,40%);fill-opacity:1;" d="M 146.824219 29.980469 C 173.789062 29.980469 206.800781 47.441406 240.019531 77.183594 C 273.226562 47.464844 306.222656 30.023438 333.160156 30.023438 C 342.898438 30.023438 351.757812 32.242188 359.476562 36.617188 C 372.414062 43.949219 381.390625 56.675781 386.152344 74.453125 C 392.617188 97.957031 391.261719 126.894531 383.550781 158.933594 C 438.882812 177.421875 474 206.585938 474 240 C 474 273.414062 438.882812 302.578125 383.542969 321.070312 C 391.589844 355.710938 392.941406 385.429688 386.148438 405.546875 C 381.382812 423.316406 372.414062 436.050781 359.488281 443.382812 C 351.757812 447.761719 344.730469 450 334.996094 450 C 334.992188 450 332.503906 450 332.496094 450 C 305.542969 450 273.203125 432.539062 240 402.835938 C 206.789062 432.570312 173.789062 450.019531 146.839844 450.019531 C 137.101562 450.019531 128.242188 447.796875 120.523438 443.425781 C 107.574219 436.074219 98.59375 423.328125 93.835938 405.539062 C 86.695312 383.238281 88.132812 353.921875 96.4375 321.066406 C 41.113281 302.574219 6 273.414062 6 240 C 6 206.59375 41.113281 177.425781 96.433594 158.933594 C 92.308594 140.578125 89.675781 123.539062 89.585938 108 C 89.515625 95.722656 91.1875 84.304688 93.828125 74.460938 C 98.59375 56.664062 107.566406 43.921875 120.515625 36.574219 C 128.230469 32.195312 137.089844 29.980469 146.824219 29.980469 M 113.746094 153.683594 C 134.609375 147.953125 157.777344 143.621094 182.644531 140.980469 C 196.9375 121.722656 211.894531 104.40625 226.960938 89.476562 C 197.730469 63.402344 169.265625 47.976562 146.824219 47.976562 C 140.230469 47.976562 134.375 49.402344 129.402344 52.230469 C 120.804688 57.109375 114.691406 66.148438 111.214844 79.117188 C 106.066406 98.328125 107.238281 124.296875 113.746094 153.683594 M 366.234375 153.679688 C 372.742188 124.289062 373.914062 98.316406 368.765625 79.105469 C 365.296875 66.160156 359.183594 57.136719 350.605469 52.273438 C 345.625 49.445312 339.75 48.019531 333.160156 48.019531 C 310.738281 48.019531 282.292969 63.425781 253.066406 89.476562 C 268.128906 104.40625 283.066406 121.722656 297.347656 140.976562 C 322.207031 143.617188 345.371094 147.949219 366.234375 153.679688 M 206.863281 138.996094 C 217.675781 138.355469 228.515625 137.796875 239.789062 137.796875 C 251.0625 137.796875 262.320312 138.359375 273.132812 138.996094 C 262.285156 125.320312 251.148438 112.828125 240.007812 101.773438 C 228.863281 112.828125 217.722656 125.320312 206.863281 138.996094 M 240 324 C 256.566406 324 272.425781 323.273438 287.507812 321.949219 C 296.621094 309.246094 305.4375 295.757812 313.738281 281.632812 C 321.859375 267.839844 329.203125 253.878906 335.761719 240 C 329.203125 226.121094 321.859375 212.164062 313.746094 198.378906 C 305.4375 184.246094 296.628906 170.765625 287.507812 158.0625 C 272.429688 156.726562 256.570312 156 240 156 C 223.429688 156 207.5625 156.726562 192.480469 158.058594 C 183.355469 170.761719 174.535156 184.246094 166.222656 198.371094 C 158.113281 212.164062 150.769531 226.128906 144.210938 240.007812 C 150.769531 253.882812 158.105469 267.839844 166.21875 281.628906 C 174.527344 295.753906 183.34375 309.238281 192.460938 321.941406 C 207.550781 323.273438 223.421875 324 240 324 M 345.277344 218.476562 C 352.027344 202.222656 357.613281 186.265625 361.871094 171 C 346.554688 166.789062 329.632812 163.308594 311.304688 160.757812 C 317.472656 169.921875 323.476562 179.417969 329.257812 189.246094 C 334.980469 198.960938 340.300781 208.726562 345.277344 218.476562 M 134.695312 218.484375 C 139.660156 208.734375 144.988281 198.964844 150.703125 189.246094 C 156.484375 179.417969 162.496094 169.925781 168.671875 160.765625 C 150.34375 163.308594 133.421875 166.792969 118.105469 171.007812 C 122.363281 186.269531 127.949219 202.222656 134.695312 218.484375 M 379.128906 303.730469 C 427.585938 287.316406 456 263.195312 456 240 C 456 216.804688 427.585938 192.683594 379.128906 176.269531 C 373.410156 196.699219 365.515625 218.164062 355.609375 239.992188 C 365.515625 261.828125 373.410156 283.296875 379.128906 303.730469 M 100.859375 303.726562 C 106.570312 283.300781 114.460938 261.835938 124.367188 240.011719 C 114.460938 218.183594 106.566406 196.710938 100.855469 176.28125 C 52.402344 192.695312 24 216.808594 24 240 C 24 263.195312 52.410156 287.308594 100.859375 303.726562 M 311.304688 319.242188 C 329.632812 316.699219 346.554688 313.21875 361.871094 309 C 357.605469 293.734375 352.019531 277.777344 345.277344 261.515625 C 340.300781 271.265625 334.972656 281.035156 329.257812 290.753906 C 323.476562 300.582031 317.472656 310.078125 311.304688 319.242188 M 168.652344 319.234375 C 162.484375 310.074219 156.480469 300.582031 150.695312 290.761719 C 144.984375 281.046875 139.660156 271.285156 134.695312 261.539062 C 127.949219 277.789062 122.371094 293.742188 118.109375 309 C 133.421875 313.207031 150.335938 316.6875 168.652344 319.234375 M 146.84375 432.019531 C 169.277344 432.019531 197.730469 416.597656 226.957031 390.535156 C 211.878906 375.601562 196.925781 358.277344 182.628906 339.011719 C 157.769531 336.378906 134.617188 332.046875 113.761719 326.316406 C 107.257812 355.703125 106.085938 381.671875 111.226562 400.882812 C 114.695312 413.84375 120.816406 422.886719 129.40625 427.765625 C 134.375 430.589844 140.25 432.019531 146.84375 432.019531 M 333.160156 431.980469 C 339.757812 431.980469 345.617188 430.554688 350.605469 427.726562 C 359.183594 422.863281 365.285156 413.839844 368.746094 400.890625 C 373.894531 381.671875 372.726562 355.703125 366.222656 326.320312 C 345.359375 332.050781 322.199219 336.382812 297.335938 339.019531 C 283.054688 358.277344 268.109375 375.59375 253.050781 390.527344 C 282.277344 416.566406 310.726562 431.976562 333.160156 431.980469 M 240 378.238281 C 251.140625 367.175781 262.277344 354.679688 273.132812 341.003906 C 262.324219 341.644531 251.777344 343.003906 240.496094 343.003906 C 229.210938 343.003906 217.65625 341.644531 206.84375 341.003906 C 217.703125 354.683594 228.851562 367.183594 240 378.238281 M 144.695312 24.433594 C 133.902344 24.433594 126.1875 26.460938 117.558594 31.351562 C 103.164062 39.515625 93.226562 53.496094 88.03125 72.90625 C 82.273438 94.429688 82.769531 122.71875 89.449219 154.992188 C 32.515625 175.132812 0 205.949219 0 240 C 0 274.054688 32.519531 304.867188 89.453125 325.007812 C 82.777344 357.28125 82.277344 385.570312 88.042969 407.09375 C 93.234375 426.492188 103.164062 440.472656 117.570312 448.648438 C 126.210938 453.546875 136.589844 455.628906 147.378906 455.628906 C 174.300781 455.628906 205.894531 440.417969 240.007812 410.832031 C 274.109375 440.386719 306.238281 455.976562 333.15625 455.980469 C 343.949219 455.980469 353.800781 453.503906 362.441406 448.609375 C 376.824219 440.453125 386.746094 426.492188 391.9375 407.105469 C 397.703125 385.578125 397.207031 357.289062 390.527344 325.019531 C 447.472656 304.871094 480 274.054688 480 240 C 480 205.945312 447.480469 175.128906 390.535156 154.984375 C 397.21875 122.707031 397.710938 94.414062 391.945312 72.894531 C 386.746094 53.507812 376.816406 39.546875 362.429688 31.390625 C 353.796875 26.503906 343.945312 24.019531 333.15625 24.019531 C 306.246094 24.019531 274.121094 39.613281 240.011719 69.179688 C 205.894531 39.589844 173.617188 24.414062 146.6875 24.414062 Z M 118.320312 146.261719 C 115.546875 132.316406 113.6875 119.25 113.585938 107.789062 C 113.496094 97.46875 114.910156 88.488281 117.007812 80.664062 C 120.046875 69.3125 125.214844 61.5 132.359375 57.445312 C 136.414062 55.140625 141.359375 53.578125 146.898438 53.578125 C 165.984375 53.578125 191.101562 66.648438 218.195312 89.785156 C 204.871094 103.421875 191.84375 118.699219 179.398438 135.292969 C 157.890625 137.695312 137.382812 141.371094 118.320312 146.261719 Z M 261.828125 89.796875 C 288.917969 66.679688 314.09375 54.019531 333.15625 54.019531 C 338.699219 54.019531 343.578125 55.1875 347.640625 57.492188 C 354.773438 61.535156 359.933594 69.328125 362.96875 80.65625 C 368.214844 97.566406 367.535156 120.042969 361.660156 146.257812 C 342.601562 141.371094 322.097656 137.6875 300.59375 135.300781 C 288.15625 118.710938 275.140625 103.433594 261.828125 89.796875 Z M 220.039062 132.359375 C 226.613281 124.558594 233.292969 117.179688 240.007812 110.292969 C 246.71875 117.179688 253.390625 124.558594 259.960938 132.359375 C 253.246094 132.121094 246.570312 132 240 132 C 233.429688 132 226.757812 132.121094 220.039062 132.359375 Z M 195.75 163.800781 C 210.179688 162.605469 225.046875 161.753906 240 161.753906 C 254.945312 161.753906 269.8125 162.605469 284.238281 163.800781 C 292.828125 175.914062 301.015625 188.554688 308.574219 201.414062 C 315.90625 213.882812 322.8125 226.847656 329.113281 239.992188 C 322.804688 253.144531 315.898438 266.117188 308.566406 278.585938 C 301.003906 291.449219 292.824219 304.085938 284.230469 316.199219 C 269.8125 317.394531 254.945312 318.996094 240 318.996094 C 225.042969 318.996094 210.167969 317.386719 195.730469 316.195312 C 187.132812 304.085938 178.949219 291.445312 171.382812 278.578125 C 164.050781 266.117188 157.152344 253.152344 150.851562 240 C 157.152344 226.847656 164.058594 213.875 171.390625 201.40625 C 178.960938 188.550781 187.152344 175.90625 195.75 163.800781 Z M 344.53125 204.144531 C 341.238281 198.035156 337.859375 192.035156 334.433594 186.203125 C 331.015625 180.390625 327.433594 174.550781 323.722656 168.75 C 334.367188 170.5625 344.632812 172.726562 354.40625 175.230469 C 351.605469 184.625 348.300781 194.296875 344.53125 204.144531 Z M 125.566406 175.230469 C 135.34375 172.726562 145.609375 170.5625 156.253906 168.75 C 152.539062 174.550781 148.957031 180.390625 145.535156 186.199219 C 142.109375 192.03125 138.730469 198.03125 135.4375 204.136719 C 131.671875 194.304688 128.371094 184.632812 125.566406 175.230469 Z M 362.191406 239.992188 C 370.679688 221.023438 377.710938 202.242188 383.128906 184.039062 C 424.546875 199.152344 450 220.324219 450 240 C 450 259.675781 424.546875 280.847656 383.128906 295.960938 C 377.707031 277.753906 370.679688 258.964844 362.191406 239.992188 Z M 96.851562 295.957031 C 55.445312 280.84375 30 259.667969 30 240 C 30 220.332031 55.445312 199.15625 96.847656 184.042969 C 102.265625 202.253906 109.289062 221.035156 117.78125 240.007812 C 109.296875 258.972656 102.269531 277.753906 96.851562 295.957031 Z M 323.71875 311.257812 C 327.425781 305.449219 331.015625 299.609375 334.429688 293.800781 C 337.859375 287.96875 341.238281 281.964844 344.53125 275.855469 C 348.300781 285.703125 351.601562 295.378906 354.40625 304.78125 C 344.628906 307.273438 334.363281 309.445312 323.71875 311.257812 Z M 125.574219 304.769531 C 128.375 295.375 131.675781 285.707031 135.4375 275.875 C 138.726562 281.976562 142.105469 287.976562 145.53125 293.800781 C 148.945312 299.609375 152.527344 305.441406 156.238281 311.25 C 145.601562 309.433594 135.34375 307.265625 125.574219 304.769531 Z M 146.84375 426.019531 C 141.300781 426.019531 136.429688 424.847656 132.367188 422.542969 C 125.226562 418.488281 120.058594 410.683594 117.023438 399.328125 C 112.039062 382.261719 112.601562 359.777344 118.332031 333.730469 C 137.386719 338.617188 157.882812 342.300781 179.382812 344.6875 C 191.832031 361.285156 204.859375 376.566406 218.191406 390.214844 C 191.101562 413.359375 165.917969 426.023438 146.84375 426.019531 Z M 300.589844 344.699219 C 322.09375 342.304688 342.59375 338.628906 361.65625 333.742188 C 368.285156 362.183594 368.808594 384.851562 362.957031 399.335938 C 359.929688 410.671875 354.773438 418.464844 347.644531 422.503906 C 343.578125 424.804688 338.707031 425.976562 333.167969 425.976562 L 333.167969 431.976562 L 333.160156 425.976562 C 314.082031 425.976562 288.898438 413.316406 261.816406 390.210938 C 275.136719 376.570312 288.148438 361.296875 300.589844 344.699219 Z M 240 369.71875 C 233.28125 362.832031 226.597656 355.445312 220.019531 347.640625 C 226.738281 347.878906 233.425781 348 240 348 C 246.570312 348 253.246094 347.878906 259.960938 347.640625 C 253.390625 355.445312 246.714844 362.832031 240 369.71875 Z M 240 369.71875 "/>
</g>
</svg>
